<?xml version="1.0" encoding="UTF-8" standalone="no"?>
<svg width="385px" height="304px" viewBox="0 0 385 304" version="1.1" xmlns="http://www.w3.org/2000/svg" xmlns:xlink="http://www.w3.org/1999/xlink">
    <!-- Generator: Sketch 42 (36781) - http://www.bohemiancoding.com/sketch -->
    <title>Group 5</title>
    <desc>Created with Sketch.</desc>
    <defs>
        <path d="M18.340417,8.4710521 C18.3537079,8.42686481 18.3619108,8.40347386 18.3619108,8.40347386 C18.3619108,8.40347386 12.2316567,11.8919606 9.08085183,15.2878944 C5.930047,18.6838282 0.204285802,27.6352966 0.204285802,27.6352966 C0.204285802,27.6352966 0.353876717,28.8776896 0.811263669,29.6754932 C1.26865062,30.4732967 2.17804125,31.1745425 2.81723175,31.619842 C3.48363087,32.0840967 4.10212768,32.5377556 5.30378256,32.8004315 C6.50543744,33.0631074 7.5701961,32.812171 7.5701961,32.812171 C7.5701961,32.812171 11.9123579,24.1252601 14.5382787,21.233204 C16.902634,18.6292229 21.3391739,17.0066527 22.1995538,16.709244 C22.2423717,16.6957434 22.285016,16.6812683 22.3274673,16.6658085 C22.3398132,16.6617152 22.3461516,16.6596584 22.3461516,16.6596584 C22.3461516,16.6596584 22.3459815,16.6594833 22.3456426,16.6591342 C22.3899414,16.6426773 22.434033,16.6251502 22.4778888,16.6065345 C24.3774299,15.8002272 25.1152081,13.2569472 24.1257625,10.9259596 C23.136317,8.59497196 20.7943306,7.3589744 18.8947896,8.16528173 C18.6972186,8.24914563 18.5122157,8.35180018 18.340417,8.4710521 Z" id="path-1"></path>
        <mask id="mask-2" maskContentUnits="userSpaceOnUse" maskUnits="objectBoundingBox" x="0" y="0" width="24.4518152" height="24.9757868" fill="white">
            <use xlink:href="#path-1"></use>
        </mask>
        <ellipse id="path-3" cx="20.6863392" cy="12.3859081" rx="3.7364532" ry="4.5851213"></ellipse>
        <mask id="mask-4" maskContentUnits="userSpaceOnUse" maskUnits="objectBoundingBox" x="0" y="0" width="7.4729064" height="9.17024259" fill="white">
            <use xlink:href="#path-3"></use>
        </mask>
        <path d="M8.44454685,18.6555048 C11.7126461,18.6555048 19.7422709,14.835736 19.7422709,11.5459435 C19.7422709,8.25615101 12.2820122,2.8209698 9.013913,2.8209698 C7.75250217,2.8209698 5.60286716,5.1745585 4.51863478,6.1015665 C3.65075085,6.84359871 2.86107061,8.11633838 2.64349886,9.0451544 C2.42592711,9.97397042 2.52961219,9.46713764 2.56444538,9.63741157 C2.57937715,9.71040202 2.49825066,9.90246907 2.49706913,9.96898456 C2.49588759,10.0355 2.44229438,10.5562722 2.48328457,10.8455632 C2.51334353,11.0577064 2.63988154,11.5987407 2.85852797,12.1255831 C3.07717439,12.6524255 3.21115824,12.8243233 3.36501157,13.0230253 C3.90614151,13.7218961 3.86929727,13.5707952 4.09672624,13.763948 C4.39508145,14.0173376 4.58839149,14.0720954 5.14166507,14.2821097 C5.69493866,14.4921241 7.14241515,18.6555048 8.44454685,18.6555048 Z" id="path-5"></path>
        <path d="M13.5687358,6.87488263 L13.2500916,6.58123017 C13.2500916,6.58123017 10.9289517,8.35645917 8.58537739,9.82088691 C6.24180311,11.2853147 0.971862403,13.384015 0.971862403,13.384015 L1.93275799,14.5407975 C1.93275799,14.5407975 6.96750977,12.6144609 8.91567645,11.3971112 C10.8638431,10.1797616 14.3108882,7.55882699 14.3108882,7.55882699 L13.9678722,7.24271426 L14.353083,6.74966696 L13.9267821,6.4166042 L13.5687358,6.87488263 Z" id="path-7"></path>
        <mask id="mask-8" maskContentUnits="userSpaceOnUse" maskUnits="objectBoundingBox" x="0" y="0" width="13.3907009" height="8.08081516" fill="white">
            <use xlink:href="#path-7"></use>
        </mask>
        <path d="M14.0369587,11.278047 L14.0141964,10.8072196 C14.0141964,10.8072196 9.04144315,12.7125192 6.49218201,13.1620227 C3.94292086,13.6115263 1.21144487,13.8134469 1.21144487,13.8134469 L1.10104173,15.2455609 C1.10104173,15.2455609 5.14766879,14.9341637 7.26681887,14.5605004 C9.38596895,14.186837 14.0867338,12.3076224 14.0867338,12.3076224 L14.063689,11.830952 L14.7488217,11.6473713 L14.6088049,11.1248213 L14.0369587,11.278047 Z" id="path-9"></path>
        <mask id="mask-10" maskContentUnits="userSpaceOnUse" maskUnits="objectBoundingBox" x="0" y="0" width="13.6469157" height="4.41343627" fill="white">
            <use xlink:href="#path-9"></use>
        </mask>
        <path d="M11.3430643,5.92060723 L11.1041,5.62794376 C11.1041,5.62794376 6.35331095,7.37684077 4.52844596,8.51714298 C2.70358097,9.65744518 -0.51201441,12.133754 -0.51201441,12.133754 L0.528302443,13.124148 C0.528302443,13.124148 2.69329596,11.4464901 4.88854275,10.0747476 C7.08378955,8.70300517 12.0541597,6.79149732 12.0541597,6.79149732 L11.6907467,6.34641954 L12.2058546,6.06089057 L11.9435805,5.58773565 L11.3430643,5.92060723 Z" id="path-11"></path>
        <mask id="mask-12" maskContentUnits="userSpaceOnUse" maskUnits="objectBoundingBox" x="0" y="0" width="12.7242123" height="7.49799686" fill="white">
            <use xlink:href="#path-11"></use>
        </mask>
        <path d="M11.3443186,7.72542209 L11.1041,7.43122245 C11.1041,7.43122245 6.35331095,9.18011946 4.52844596,10.3204217 C2.70358097,11.4607239 -0.51201441,13.9370326 -0.51201441,13.9370326 L0.528302443,14.9274267 C0.528302443,14.9274267 2.69329596,13.2497687 4.88854275,11.8780263 C7.08378955,10.5062839 12.0541597,8.59477601 12.0541597,8.59477601 L11.7113387,8.17491756 L12.1967763,7.88323724 L11.9009785,7.39094708 L11.3443186,7.72542209 Z" id="path-13"></path>
        <mask id="mask-14" maskContentUnits="userSpaceOnUse" maskUnits="objectBoundingBox" x="0" y="0" width="12.7153142" height="7.49799686" fill="white">
            <use xlink:href="#path-13"></use>
        </mask>
        <path d="M11.2219223,10.9353504 L11.0279903,10.4239558 C11.0279903,10.4239558 6.88739083,13.7726687 4.60180363,14.987937 C2.31621644,16.2032052 -0.219174693,17.2393157 -0.219174693,17.2393157 L0.118373249,18.6354535 C0.118373249,18.6354535 3.87071725,17.0888206 5.77068042,16.0785922 C7.67064359,15.0683639 11.5606274,11.8285084 11.5606274,11.8285084 L11.4288576,11.4810345 L12.0145103,11.1291389 L11.7187125,10.6368487 L11.2219223,10.9353504 Z" id="path-15"></path>
        <mask id="mask-16" maskContentUnits="userSpaceOnUse" maskUnits="objectBoundingBox" x="0" y="0" width="12.2379232" height="8.14416492" fill="white">
            <use xlink:href="#path-15"></use>
        </mask>
        <path d="M18.340417,8.4710521 C18.3537079,8.42686481 18.3619108,8.40347386 18.3619108,8.40347386 C18.3619108,8.40347386 12.2316567,11.8919606 9.08085183,15.2878944 C5.930047,18.6838282 0.204285802,27.6352966 0.204285802,27.6352966 C0.204285802,27.6352966 0.353876717,28.8776896 0.811263669,29.6754932 C1.26865062,30.4732967 2.17804125,31.1745425 2.81723175,31.619842 C3.48363087,32.0840967 4.10212768,32.5377556 5.30378256,32.8004315 C6.50543744,33.0631074 7.5701961,32.812171 7.5701961,32.812171 C7.5701961,32.812171 11.9123579,24.1252601 14.5382787,21.233204 C16.902634,18.6292229 21.3391739,17.0066527 22.1995538,16.709244 C22.2423717,16.6957434 22.285016,16.6812683 22.3274673,16.6658085 C22.3398132,16.6617152 22.3461516,16.6596584 22.3461516,16.6596584 C22.3461516,16.6596584 22.3459815,16.6594833 22.3456426,16.6591342 C22.3899414,16.6426773 22.434033,16.6251502 22.4778888,16.6065345 C24.3774299,15.8002272 25.1152081,13.2569472 24.1257625,10.9259596 C23.136317,8.59497196 20.7943306,7.3589744 18.8947896,8.16528173 C18.6972186,8.24914563 18.5122157,8.35180018 18.340417,8.4710521 Z" id="path-17"></path>
        <mask id="mask-18" maskContentUnits="userSpaceOnUse" maskUnits="objectBoundingBox" x="0" y="0" width="24.4518152" height="24.9757868" fill="white">
            <use xlink:href="#path-17"></use>
        </mask>
        <ellipse id="path-19" cx="20.6863392" cy="12.3859081" rx="3.7364532" ry="4.5851213"></ellipse>
        <mask id="mask-20" maskContentUnits="userSpaceOnUse" maskUnits="objectBoundingBox" x="0" y="0" width="7.4729064" height="9.17024259" fill="white">
            <use xlink:href="#path-19"></use>
        </mask>
        <path d="M8.44454685,18.6555048 C11.7126461,18.6555048 19.7422709,14.835736 19.7422709,11.5459435 C19.7422709,8.25615101 12.2820122,2.8209698 9.013913,2.8209698 C7.75250217,2.8209698 5.60286716,5.1745585 4.51863478,6.1015665 C3.65075085,6.84359871 2.86107061,8.11633838 2.64349886,9.0451544 C2.42592711,9.97397042 2.52961219,9.46713764 2.56444538,9.63741157 C2.57937715,9.71040202 2.49825066,9.90246907 2.49706913,9.96898456 C2.49588759,10.0355 2.44229438,10.5562722 2.48328457,10.8455632 C2.51334353,11.0577064 2.63988154,11.5987407 2.85852797,12.1255831 C3.07717439,12.6524255 3.21115824,12.8243233 3.36501157,13.0230253 C3.90614151,13.7218961 3.86929727,13.5707952 4.09672624,13.763948 C4.39508145,14.0173376 4.58839149,14.0720954 5.14166507,14.2821097 C5.69493866,14.4921241 7.14241515,18.6555048 8.44454685,18.6555048 Z" id="path-21"></path>
        <path d="M13.5687358,6.87488263 L13.2500916,6.58123017 C13.2500916,6.58123017 10.9289517,8.35645917 8.58537739,9.82088691 C6.24180311,11.2853147 0.971862403,13.384015 0.971862403,13.384015 L1.93275799,14.5407975 C1.93275799,14.5407975 6.96750977,12.6144609 8.91567645,11.3971112 C10.8638431,10.1797616 14.3108882,7.55882699 14.3108882,7.55882699 L13.9678722,7.24271426 L14.353083,6.74966696 L13.9267821,6.4166042 L13.5687358,6.87488263 Z" id="path-23"></path>
        <mask id="mask-24" maskContentUnits="userSpaceOnUse" maskUnits="objectBoundingBox" x="0" y="0" width="13.3907009" height="8.08081516" fill="white">
            <use xlink:href="#path-23"></use>
        </mask>
        <path d="M14.0369587,11.278047 L14.0141964,10.8072196 C14.0141964,10.8072196 9.04144315,12.7125192 6.49218201,13.1620227 C3.94292086,13.6115263 1.21144487,13.8134469 1.21144487,13.8134469 L1.10104173,15.2455609 C1.10104173,15.2455609 5.14766879,14.9341637 7.26681887,14.5605004 C9.38596895,14.186837 14.0867338,12.3076224 14.0867338,12.3076224 L14.063689,11.830952 L14.7488217,11.6473713 L14.6088049,11.1248213 L14.0369587,11.278047 Z" id="path-25"></path>
        <mask id="mask-26" maskContentUnits="userSpaceOnUse" maskUnits="objectBoundingBox" x="0" y="0" width="13.6469157" height="4.41343627" fill="white">
            <use xlink:href="#path-25"></use>
        </mask>
        <path d="M11.3430643,5.92060723 L11.1041,5.62794376 C11.1041,5.62794376 6.35331095,7.37684077 4.52844596,8.51714298 C2.70358097,9.65744518 -0.51201441,12.133754 -0.51201441,12.133754 L0.528302443,13.124148 C0.528302443,13.124148 2.69329596,11.4464901 4.88854275,10.0747476 C7.08378955,8.70300517 12.0541597,6.79149732 12.0541597,6.79149732 L11.6907467,6.34641954 L12.2058546,6.06089057 L11.9435805,5.58773565 L11.3430643,5.92060723 Z" id="path-27"></path>
        <mask id="mask-28" maskContentUnits="userSpaceOnUse" maskUnits="objectBoundingBox" x="0" y="0" width="12.7242123" height="7.49799686" fill="white">
            <use xlink:href="#path-27"></use>
        </mask>
        <path d="M11.3443186,7.72542209 L11.1041,7.43122245 C11.1041,7.43122245 6.35331095,9.18011946 4.52844596,10.3204217 C2.70358097,11.4607239 -0.51201441,13.9370326 -0.51201441,13.9370326 L0.528302443,14.9274267 C0.528302443,14.9274267 2.69329596,13.2497687 4.88854275,11.8780263 C7.08378955,10.5062839 12.0541597,8.59477601 12.0541597,8.59477601 L11.7113387,8.17491756 L12.1967763,7.88323724 L11.9009785,7.39094708 L11.3443186,7.72542209 Z" id="path-29"></path>
        <mask id="mask-30" maskContentUnits="userSpaceOnUse" maskUnits="objectBoundingBox" x="0" y="0" width="12.7153142" height="7.49799686" fill="white">
            <use xlink:href="#path-29"></use>
        </mask>
        <path d="M11.2219223,10.9353504 L11.0279903,10.4239558 C11.0279903,10.4239558 6.88739083,13.7726687 4.60180363,14.987937 C2.31621644,16.2032052 -0.219174693,17.2393157 -0.219174693,17.2393157 L0.118373249,18.6354535 C0.118373249,18.6354535 3.87071725,17.0888206 5.77068042,16.0785922 C7.67064359,15.0683639 11.5606274,11.8285084 11.5606274,11.8285084 L11.4288576,11.4810345 L12.0145103,11.1291389 L11.7187125,10.6368487 L11.2219223,10.9353504 Z" id="path-31"></path>
        <mask id="mask-32" maskContentUnits="userSpaceOnUse" maskUnits="objectBoundingBox" x="0" y="0" width="12.2379232" height="8.14416492" fill="white">
            <use xlink:href="#path-31"></use>
        </mask>
        <path d="M194,27.3526053 L194,0 L164,0 L164,27.3526053 C156.185336,32.3199652 151,41.0544326 151,51 C151,58.4977717 164.449347,68.4061401 164.449347,68.4061401 L179,68.4061401 L193.302139,68.4061401 C193.302139,68.4061401 193.499676,68.2637031 193.847306,68 L194,68 L194,67.8837059 C196.790998,65.7497608 207,57.4999039 207,51 C207,41.0544326 201.814664,32.3199652 194,27.3526053 Z" id="path-33"></path>
        <mask id="mask-34" maskContentUnits="userSpaceOnUse" maskUnits="objectBoundingBox" x="0" y="0" width="56" height="68.4061401" fill="white">
            <use xlink:href="#path-33"></use>
        </mask>
        <path d="M25.3293239,9.7364814 C28.7067602,4.35917121 36.5943689,0 42.9485672,0 L197.616849,0 C203.970252,0 211.780349,4.40700157 215.067174,9.85323128 L223,22.9978294 L17,22.9978294 L25.3293239,9.7364814 Z" id="path-35"></path>
        <mask id="mask-36" maskContentUnits="userSpaceOnUse" maskUnits="objectBoundingBox" x="0" y="0" width="206" height="22.9978294" fill="white">
            <use xlink:href="#path-35"></use>
        </mask>
        <path d="M10.3392336,27.6610349 C13.8845916,23.4299622 21.2317025,20 26.7533953,20 L212.902597,20 C218.42253,20 225.702193,23.4837341 229.169145,27.7897906 L239,40 L0,40 L10.3392336,27.6610349 Z" id="path-37"></path>
        <mask id="mask-38" maskContentUnits="userSpaceOnUse" maskUnits="objectBoundingBox" x="0" y="0" width="239" height="20" fill="white">
            <use xlink:href="#path-37"></use>
        </mask>
    </defs>
    <g id="Page-1" stroke="none" stroke-width="1" fill="none" fill-rule="evenodd">
        <g id="Art" transform="translate(-548.000000, -500.000000)">
            <g id="Group-5" transform="translate(502.000000, 465.000000)">
                <g id="Group-2" transform="translate(287.913887, 228.501950) scale(1, -1) rotate(123.000000) translate(-287.913887, -228.501950) translate(269.413887, 212.001950)">
                    <use id="Combined-Shape" stroke="#888888" mask="url(#mask-2)" stroke-width="1.08" fill="#959595" xlink:href="#path-1"></use>
                    <use id="Oval" stroke="#888888" mask="url(#mask-4)" stroke-width="1.08" transform="translate(20.686339, 12.385908) rotate(-23.000000) translate(-20.686339, -12.385908) " xlink:href="#path-3"></use>
                    <g id="Rectangle-9" transform="translate(14.763547, 0.000000)">
                        <mask id="mask-6" fill="white">
                            <use xlink:href="#path-5"></use>
                        </mask>
                        <g id="Mask" transform="translate(11.105070, 10.738237) rotate(-23.000000) translate(-11.105070, -10.738237) "></g>
                        <g id="Combined-Shape" mask="url(#mask-6)" stroke="#C2904A" fill="#D4A057">
                            <use mask="url(#mask-8)" xlink:href="#path-7"></use>
                        </g>
                        <g id="Combined-Shape" mask="url(#mask-6)" stroke="#C2904A" fill="#D4A057">
                            <use mask="url(#mask-10)" xlink:href="#path-9"></use>
                        </g>
                        <g id="Combined-Shape" mask="url(#mask-6)" stroke="#C2904A" fill="#D4A057">
                            <use mask="url(#mask-12)" xlink:href="#path-11"></use>
                        </g>
                        <g id="Combined-Shape" mask="url(#mask-6)" stroke="#42B743" fill="#68D369">
                            <use mask="url(#mask-14)" xlink:href="#path-13"></use>
                        </g>
                        <g id="Combined-Shape" mask="url(#mask-6)" stroke="#42B743" fill="#68D369">
                            <use mask="url(#mask-16)" xlink:href="#path-15"></use>
                        </g>
                    </g>
                </g>
                <g id="Group-2-Copy" transform="translate(239.308451, 223.726815) scale(-1, -1) rotate(169.000000) translate(-239.308451, -223.726815) translate(220.808451, 207.226815)">
                    <use id="Combined-Shape" stroke="#888888" mask="url(#mask-18)" stroke-width="1.08" fill="#959595" xlink:href="#path-17"></use>
                    <use id="Oval" stroke="#888888" mask="url(#mask-20)" stroke-width="1.08" transform="translate(20.686339, 12.385908) rotate(-23.000000) translate(-20.686339, -12.385908) " xlink:href="#path-19"></use>
                    <g id="Rectangle-9" transform="translate(14.763547, -0.000000)">
                        <mask id="mask-22" fill="white">
                            <use xlink:href="#path-21"></use>
                        </mask>
                        <g id="Mask" transform="translate(11.105070, 10.738237) rotate(-23.000000) translate(-11.105070, -10.738237) "></g>
                        <g id="Combined-Shape" mask="url(#mask-22)" stroke="#C2904A" fill="#D4A057">
                            <use mask="url(#mask-24)" xlink:href="#path-23"></use>
                        </g>
                        <g id="Combined-Shape" mask="url(#mask-22)" stroke="#C2904A" fill="#D4A057">
                            <use mask="url(#mask-26)" xlink:href="#path-25"></use>
                        </g>
                        <g id="Combined-Shape" mask="url(#mask-22)" stroke="#C2904A" fill="#D4A057">
                            <use mask="url(#mask-28)" xlink:href="#path-27"></use>
                        </g>
                        <g id="Combined-Shape" mask="url(#mask-22)" stroke="#42B743" fill="#68D369">
                            <use mask="url(#mask-30)" xlink:href="#path-29"></use>
                        </g>
                        <g id="Combined-Shape" mask="url(#mask-22)" stroke="#42B743" fill="#68D369">
                            <use mask="url(#mask-32)" xlink:href="#path-31"></use>
                        </g>
                    </g>
                </g>
                <g id="Group-4" transform="translate(73.000000, 267.000000)" stroke="#A2610C" fill="#683C0C">
                    <use id="Combined-Shape" mask="url(#mask-34)" stroke-width="2" xlink:href="#path-33"></use>
                    <path d="M40.6095272,39.49779 C38.7480861,30.0919266 30.4522472,23 20.5,23 C9.17816263,23 0,32.1781626 0,43.5 C0,54.8218374 9.17816263,64 20.5,64 C26.309742,64 31.5550168,61.5832283 35.2853239,57.7001854 L34.9183824,58.9546857 C34.9183824,58.9546857 46.461313,61.0465117 55.2245761,56.2358213 C63.9878392,51.4251309 79.5970694,36.2138083 84.9914642,29.1180989 C98.7765408,10.985407 127.648723,8.92195587 127.648723,8.92195587 L166.513376,8.92195587 L61.0676584,8.60892268 C61.0676584,8.60892268 53.447849,14.9443839 50.6568594,19.6048247 C47.8658699,24.2652655 43.7933623,37.4538302 43.7933623,37.4538302 L41.0512649,37.9875762 L40.6095272,39.49779 Z" id="Combined-Shape"></path>
                    <path d="M322.106147,58.3090156 C325.787903,61.8342248 330.781845,64 336.28163,64 C347.603467,64 356.78163,54.8218374 356.78163,43.5 C356.78163,32.1781626 347.603467,23 336.28163,23 C326.628781,23 318.534178,29.6716452 316.357438,38.6553192 L316.162123,37.9875762 L313.420026,37.4538302 C313.420026,37.4538302 309.347518,24.2652655 306.556529,19.6048247 C303.765539,14.9443839 296.14573,8.60892268 296.14573,8.60892268 L190.700012,8.92195587 L229.564665,8.92195587 C229.564665,8.92195587 258.436847,10.985407 272.221924,29.1180989 C277.616319,36.2138083 293.225549,51.4251309 301.988812,56.2358213 C310.752075,61.0465117 322.295006,58.9546857 322.295006,58.9546857 L322.106147,58.3090156 Z" id="Combined-Shape"></path>
                </g>
                <g id="Group-3" transform="translate(132.000000, 237.000000)" stroke-width="2">
                    <use id="Rectangle" stroke="#F0CB81" mask="url(#mask-36)" fill="#FFCD67" xlink:href="#path-35"></use>
                    <use id="Rectangle-Copy" stroke="#A2610C" mask="url(#mask-38)" fill="#EC8E14" xlink:href="#path-37"></use>
                </g>
                <g id="Group" transform="translate(185.569818, 192.721763) rotate(-113.000000) translate(-185.569818, -192.721763) translate(34.569818, 55.221763)" stroke="#D2D2D2" fill="#D1D1D1" opacity="0.875641325">
                    <path d="M63.7545072,274.259549 C25.1767324,246.903834 -1.13686838e-13,201.892087 -1.13686838e-13,151 C-1.13686838e-13,67.6050028 67.6050028,3.41060513e-13 151,3.41060513e-13 C234.394997,3.41060513e-13 302,67.6050028 302,151 C302,201.64082 277.071262,246.459221 238.815916,273.853073 C235.775039,272.66669 232.613151,272 229.545865,272 L74.0717006,272 C70.6633331,272 67.1239025,272.820298 63.7545148,274.259546 Z" id="Combined-Shape"></path>
                </g>
            </g>
        </g>
    </g>
</svg>