<?xml version="1.0" encoding="UTF-8" standalone="no"?>
<svg width="165px" height="79px" viewBox="0 0 165 79" version="1.1" xmlns="http://www.w3.org/2000/svg" xmlns:xlink="http://www.w3.org/1999/xlink">
    <!-- Generator: Sketch 44 (41411) - http://www.bohemiancoding.com/sketch -->
    <title>Feedback</title>
    <desc>Created with Sketch.</desc>
    <defs>
        <path d="M117.527281,474.032029 L123.894462,480.455742 L132.589848,471.567261 L119.020742,457.927983 C112.075883,450.883873 102.805199,447 92.9241724,447 C83.0431456,447 73.7717675,450.883873 66.8185808,457.936263 C59.8369416,465.007375 55.9941081,474.421483 56.0000068,484.443661 C56.0055585,494.49284 59.8647003,503.908748 66.8664645,510.955378 C73.8127114,517.999848 83.0833956,521.883721 92.9640754,521.883721 C102.801382,521.883721 112.070332,518.002008 119.063421,510.953578 L162.620855,466.855347 C167.287773,462.143792 173.485925,459.547343 180.07131,459.547343 C186.656001,459.547343 192.853806,462.143792 197.5235,466.858227 C202.143575,471.530539 204.691816,477.761008 204.698408,484.400818 C204.705348,491.061869 202.155025,497.323301 197.517948,502.031254 C192.854153,506.739928 186.656348,509.336377 180.071657,509.336377 C173.486272,509.336377 167.28812,506.739928 162.618427,502.025494 L149.145435,488.483421 L140.440332,497.30458 L153.970576,510.952498 C160.920293,517.999848 170.191324,521.883721 180.071657,521.883721 C189.952337,521.883721 199.223368,517.999848 206.176902,510.947458 C213.164093,503.870586 217.008314,494.455758 216.999986,484.43934 C216.992006,474.408882 213.147437,464.995854 206.175167,457.934823 C199.223368,450.883873 189.952684,447 180.071657,447 C170.23435,447 160.965401,450.881713 153.971964,457.929783 L117.547062,494.806934 C113.56061,503.850094 104.51751,510.162791 94,510.162791 C88.4216462,510.162791 83.1101405,508.38144 78.7192126,505.133548 C78.5908171,505.038577 77.8289663,504.756279 76.4336601,504.286655 L67.6472658,502.824386 C70.3036724,499.056501 71.5092761,496.94146 71.264077,496.479261 C69.3134786,492.802399 68.2790698,488.695672 68.2790698,484.44186 C68.2790698,470.236583 79.7947225,458.72093 94,458.72093 C104.500149,458.72093 113.530752,465.012805 117.527277,474.032022 Z" id="path-1"></path>
    </defs>
    <g id="Page-1" stroke="none" stroke-width="1" fill="none" fill-rule="evenodd">
        <g id="Artboard-12" transform="translate(-54.000000, -445.000000)">
            <g id="Feedback">
                <path stroke="#999999" stroke-width="7" d="M67.3793676,506.32794 C68.0044664,507.075339 68.6645006,507.799337 69.3586519,508.49794 C75.6486232,514.876854 84.0222453,518.383721 92.9640754,518.383721 C101.865929,518.383721 110.241191,514.876253 116.573326,508.49402 L160.134231,464.39228 C165.457562,459.018033 172.550603,456.047343 180.07131,456.047343 C187.591979,456.047343 194.684492,459.018502 200.012247,464.397304 C205.281256,469.725888 208.190903,476.839963 208.198406,484.397172 C208.206303,491.976353 205.295962,499.122073 200.004644,504.494249 C194.684043,509.86605 187.591158,512.836377 180.071657,512.836377 C172.550329,512.836377 165.457459,509.865244 160.137232,504.494031 L149.155541,493.456032 L145.363193,497.298939 L156.462652,508.494947 C162.755745,514.876448 171.129612,518.383721 180.071657,518.383721 C189.014932,518.383721 197.38842,514.875827 203.686297,508.488415 C210.024876,502.068481 213.50755,493.538767 213.499988,484.442125 C213.492737,475.32869 210.008964,466.79878 203.682831,460.392111 C197.388143,454.007644 189.014932,450.5 180.071657,450.5 C171.169917,450.5 162.794551,454.007392 156.46206,460.389341 L120.475026,496.823187 C115.712415,506.997056 105.46575,513.662791 94,513.662791 C87.8385235,513.662791 81.9107521,511.744429 76.9508839,508.175802 C76.9159426,508.162539 76.8773776,508.148076 76.8354326,508.132534 C76.5399222,508.023035 76.1197732,507.8757 75.5807331,507.692846 L67.3793676,506.32794 Z M64.1398349,501.725188 L64.7867067,500.807656 C66.0365138,499.034912 66.9384771,497.662968 67.4782362,496.722371 C65.7016046,492.89153 64.7790698,488.717919 64.7790698,484.44186 C64.7790698,468.303586 77.8617259,455.22093 94,455.22093 C105.445823,455.22093 115.677959,461.863508 120.451511,472.010453 L123.878097,475.467463 L127.67337,471.58791 L116.528372,460.385236 C110.239851,454.006843 101.866328,450.5 92.9241724,450.5 C83.9804735,450.5 75.606697,454.007946 69.3091613,460.39533 C62.9759135,466.809741 59.4946488,475.33909 59.5000062,484.441727 C59.5034299,490.638881 61.1155952,496.559663 64.1398349,501.725188 Z M150.115759,484.496268 L151.626629,486.014884 L165.105072,499.562448 C169.118957,503.614791 174.422463,505.836377 180.071657,505.836377 C185.719248,505.836377 191.022641,503.615446 195.024375,499.575222 C199.014326,495.524285 201.204393,490.147043 201.19841,484.404294 C201.192728,478.682023 199.005872,473.335168 195.036855,469.321273 C191.022957,465.268918 185.719792,463.047343 180.07131,463.047343 C174.42257,463.047343 169.118921,465.268605 165.110951,469.314905 L150.115759,484.496268 Z M122.891464,484.415609 L114.588212,476.038635 L114.32736,475.449953 C110.792732,467.473129 102.877132,462.22093 94,462.22093 C81.7277191,462.22093 71.7790698,472.16958 71.7790698,484.44186 C71.7790698,488.099622 72.6620076,491.645974 74.3559343,494.839012 C75.0431269,496.134365 74.9073764,497.145731 74.4556314,498.357986 C74.2586153,498.886678 73.9711448,499.467084 73.5844754,500.145435 C73.5640533,500.181262 73.5433034,500.217444 73.5222254,500.253983 L77.2846021,500.880134 L77.5501268,500.969503 C79.727291,501.702279 80.2054333,501.879451 80.8005854,502.319674 C84.6201607,505.144947 89.2094659,506.662791 94,506.662791 C102.892333,506.662791 110.818988,501.392515 114.344434,493.395135 L114.604279,492.805684 L115.056967,492.347376 L122.891464,484.415609 Z"></path>
                <use stroke="#545454" stroke-width="3" xlink:href="#path-1"></use>
            </g>
        </g>
    </g>
</svg>