<?xml version="1.0" encoding="UTF-8" standalone="no"?>
<svg width="96px" height="87px" viewBox="0 0 96 87" version="1.1" xmlns="http://www.w3.org/2000/svg" xmlns:xlink="http://www.w3.org/1999/xlink">
    <!-- Generator: Sketch 44 (41411) - http://www.bohemiancoding.com/sketch -->
    <title>Growth</title>
    <desc>Created with Sketch.</desc>
    <defs></defs>
    <g id="Page-1" stroke="none" stroke-width="1" fill="none" fill-rule="evenodd">
        <g id="Artboard-12" transform="translate(-71.000000, -307.000000)">
            <g id="Growth" transform="translate(74.000000, 311.000000)">
                <g id="Shape-Copy">
                    <path d="M1.51594084,1.69699329 C1.20418491,21.1217429 5.42428821,33.7357595 12.7857952,39.5486283 C18.8403088,44.3294556 26.8627514,43.9994582 33.3759844,39.4049916 L34.5832424,38.5533859 L35.4530782,39.7475759 C36.6661794,41.413032 37.8222871,43.2223683 38.916362,45.1590797 C42.7721459,51.9845135 46.0881866,61.6735475 48.887641,74.2435608 L48.950735,74.526863 L48.9035963,74.8132523 C48.5696614,76.8420616 48.3601266,78.9185045 48.2774437,81.0410787 C48.2693233,81.2714237 48.4486684,81.4641051 48.6771187,81.4721762 C48.9055541,81.4802462 49.0978913,81.3008429 49.1062124,81.0651099 C49.4491833,72.2617168 52.0156759,64.3212245 56.6699075,56.947328 L57.5253949,55.5919431 L58.8211902,56.535257 L58.8268606,56.5393835 C65.2445333,61.2080063 73.2070577,61.6582089 79.3346742,56.9949976 C86.7816206,51.3277557 91.2712591,38.844859 91.4359974,19.5039056 C71.4056433,21.652351 58.8783396,27.1992302 53.7067593,34.8427731 C49.4918295,41.0723964 50.671928,48.4826667 56.050303,54.1129722 C56.0719648,54.1356252 56.0719648,54.1356252 56.0936773,54.1582373 L56.9162215,55.0139802 L56.2724892,56.0112182 C53.9833055,59.5575077 52.1777506,63.2213122 50.8613791,67.0474757 L49.2580937,71.7075826 L47.9932249,66.9444715 C45.5155699,57.6143759 42.7249861,50.210383 39.6357637,44.7418348 C38.4804445,42.6967103 37.2554585,40.7911542 35.9675498,39.043374 L35.2048533,38.0083425 L36.1110424,37.0963023 C36.6067595,36.5973845 37.0731169,36.0758098 37.5069374,35.5349559 C42.0829867,29.8298897 42.5831568,22.8599608 38.1213556,16.9008148 C32.6852741,9.64042786 20.5313156,4.21143849 1.51594084,1.69699329 Z" id="Combined-Shape" stroke="#545454" stroke-width="3" fill-rule="nonzero"></path>
                    <path d="M76.0219777,36.0935348 C75.7096049,35.6977044 75.136323,35.6303794 74.741754,35.9424149 C66.577366,42.4103118 60.4412178,48.7068831 56.0078841,55.5005035 C50.9281057,63.2847496 48.1424518,71.6602277 47.7777541,81.0234631 C47.7599098,81.5296399 48.1549349,81.9540396 48.6594659,81.9718644 C49.1639971,81.9896883 49.5878548,81.5943332 49.6058333,81.0845746 C49.9562564,72.0898997 52.6494962,64.0114007 57.5442916,56.5106797 C61.8882381,49.8541757 67.8952789,43.6976117 75.8715128,37.3788405 C76.2674048,37.065709 76.334865,36.4900172 76.0219777,36.0935348 Z" id="Shape-Copy-2" stroke="#545454" stroke-width="2"></path>
                    <path d="M12.0089816,13.7851754 C11.5763788,9.91438393 11.4025273,5.43721165 11.5488957,0.329407061 L-1.32737433,11.4167802 C3.71233558,12.0263902 8.15293621,12.8313644 12.0089816,13.7851754 Z" id="Path" stroke="#999999" stroke-width="23"></path>
                    <path d="M36.9010941,40.4559044 C29.6533193,46.6914982 19.665053,47.9757024 11.9850448,42.6846382 C2.88060776,36.4122282 -2.07943582,22.0699984 -1.44577001,-0.0429661384 L-1.39867017,-1.68660416 L0.233743478,-1.48914524 C20.9283217,1.01409832 34.3513814,6.86024497 40.5228168,15.1027648 C45.8484568,22.2156468 45.2404669,30.6880568 39.8471414,37.41204 C38.9701068,38.5054593 37.9814212,39.5264493 36.9010941,40.4559044 Z" id="Path-Copy-2" stroke="#545454" stroke-width="3"></path>
                </g>
            </g>
        </g>
    </g>
</svg>