<?xml version="1.0" encoding="UTF-8" standalone="no"?>
<svg width="122px" height="111px" viewBox="0 0 122 111" version="1.1" xmlns="http://www.w3.org/2000/svg" xmlns:xlink="http://www.w3.org/1999/xlink">
    <!-- Generator: Sketch 44 (41411) - http://www.bohemiancoding.com/sketch -->
    <title>Rapport</title>
    <desc>Created with Sketch.</desc>
    <defs>
        <path d="M58.5,76 L37,76 C36.4477153,76 36,75.5522847 36,75 L36,75 C36,68.6666667 36,62.3333333 36,56 C36,44.954305 46.0735931,36 58.5,36 C70.9264069,36 81,44.954305 81,56 C81,62.3333333 81,68.6666667 81,75 C81,75.5522847 80.5522847,76 80,76 L80,76 L58.5,76 Z M59,32 C50.163444,32 43,24.836556 43,16 C43,7.163444 50.163444,0 59,0 C67.836556,0 75,7.163444 75,16 C75,24.836556 67.836556,32 59,32 Z" id="path-1"></path>
        <path d="M93.5,76 L72,76 C71.4477153,76 71,75.5522847 71,75 L71,75 C71,68.6666667 71,62.3333333 71,56 C71,44.954305 81.0735931,36 93.5,36 C105.926407,36 116,44.954305 116,56 C116,62.3333333 116,68.6666667 116,75 C116,75.5522847 115.552285,76 115,76 L115,76 L93.5,76 Z M94,32 C85.163444,32 78,24.836556 78,16 C78,7.163444 85.163444,0 94,0 C102.836556,0 110,7.163444 110,16 C110,24.836556 102.836556,32 94,32 Z" id="path-2"></path>
        <path d="M22.5,76 L1,76 C0.44771525,76 3.62034905e-15,75.5522847 3.55271368e-15,75 L0,75 C0,68.6666667 0,62.3333333 0,56 C0,44.954305 10.0735931,36 22.5,36 C34.9264069,36 45,44.954305 45,56 C45,62.3333333 45,68.6666667 45,75 C45,75.5522847 44.5522847,76 44,76 L44,76 L22.5,76 Z M23,32 C14.163444,32 7,24.836556 7,16 C7,7.163444 14.163444,0 23,0 C31.836556,0 39,7.163444 39,16 C39,24.836556 31.836556,32 23,32 Z" id="path-3"></path>
    </defs>
    <g id="Page-1" stroke="none" stroke-width="1" fill="none" fill-rule="evenodd">
        <g id="Artboard-12" transform="translate(-247.000000, -414.000000)">
            <g id="Rapport" transform="translate(250.000000, 417.000000)">
                <g id="Combined-Shape">
                    <path stroke="#999999" stroke-width="26" d="M68,63.5817175 C68,61.7105263 68,59.5 68,56 C68,52.497376 64.0654519,49 58.5,49 C52.9345481,49 49,52.497376 49,56 C49,59.5 49,61.7105263 49,63.5817175 L58.5,63 L68,63 L68,63.5817175 Z M59,19 C60.6568542,19 62,17.6568542 62,16 C62,14.3431458 60.6568542,13 59,13 C57.3431458,13 56,14.3431458 56,16 C56,17.6568542 57.3431458,19 59,19 Z"></path>
                    <path stroke="#545454" stroke-width="3" d="M80,77.5 L37,77.5 C35.6192881,77.5 34.5,76.3807119 34.5,75 L34.5,56 C34.5,44.0839507 45.2819445,34.5 58.5,34.5 C71.7180555,34.5 82.5,44.0839507 82.5,56 L82.5,75 C82.5,76.3807119 81.3807119,77.5 80,77.5 Z M59,33.5 C49.3350169,33.5 41.5,25.6649831 41.5,16 C41.5,6.33501688 49.3350169,-1.5 59,-1.5 C68.6649831,-1.5 76.5,6.33501688 76.5,16 C76.5,25.6649831 68.6649831,33.5 59,33.5 Z"></path>
                    <path stroke="#999999" stroke-width="11" d="M75.5,69.5962604 C75.5,64.9671053 75.5,63.25 75.5,56 C75.5,48.1456043 68.0236952,41.5 58.5,41.5 C48.9763048,41.5 41.5,48.1456043 41.5,56 C41.5,63.25 41.5,64.9671053 41.5,69.5962604 L58.5,70.5 L75.5,70.5 L75.5,69.5962604 Z M59,26.5 C64.7989899,26.5 69.5,21.7989899 69.5,16 C69.5,10.2010101 64.7989899,5.5 59,5.5 C53.2010101,5.5 48.5,10.2010101 48.5,16 C48.5,21.7989899 53.2010101,26.5 59,26.5 Z"></path>
                </g>
                <g id="Group" transform="translate(0.000000, 29.000000)">
                    <g id="Combined-Shape">
                        <path stroke="#FFFFFF" stroke-width="25" d="M103.5,63.9778393 C103.5,62.0197368 103.5,59.75 103.5,56 C103.5,52.2072579 99.3293348,48.5 93.5,48.5 C87.6706652,48.5 83.5,52.2072579 83.5,56 C83.5,59.75 83.5,62.0197368 83.5,63.9778393 L93.5,63.5 L103.5,63.5 L103.5,63.9778393 Z M94,19.5 C95.9329966,19.5 97.5,17.9329966 97.5,16 C97.5,14.0670034 95.9329966,12.5 94,12.5 C92.0670034,12.5 90.5,14.0670034 90.5,16 C90.5,17.9329966 92.0670034,19.5 94,19.5 Z"></path>
                        <path stroke="#545454" stroke-width="3" d="M115,77.5 L72,77.5 C70.6192881,77.5 69.5,76.3807119 69.5,75 L69.5,56 C69.5,44.0839507 80.2819445,34.5 93.5,34.5 C106.718056,34.5 117.5,44.0839507 117.5,56 L117.5,75 C117.5,76.3807119 116.380712,77.5 115,77.5 Z M94,33.5 C84.3350169,33.5 76.5,25.6649831 76.5,16 C76.5,6.33501688 84.3350169,-1.5 94,-1.5 C103.664983,-1.5 111.5,6.33501688 111.5,16 C111.5,25.6649831 103.664983,33.5 94,33.5 Z"></path>
                    </g>
                    <g id="Combined-Shape">
                        <path stroke="#FFFFFF" stroke-width="25" d="M32.5,63.9778393 C32.5,62.0197368 32.5,59.75 32.5,56 C32.5,52.2072579 28.3293348,48.5 22.5,48.5 C16.6706652,48.5 12.5,52.2072579 12.5,56 C12.5,59.75 12.5,62.0197368 12.5,63.9778393 L22.5,63.5 L32.5,63.5 L32.5,63.9778393 Z M23,19.5 C24.9329966,19.5 26.5,17.9329966 26.5,16 C26.5,14.0670034 24.9329966,12.5 23,12.5 C21.0670034,12.5 19.5,14.0670034 19.5,16 C19.5,17.9329966 21.0670034,19.5 23,19.5 Z"></path>
                        <path stroke="#545454" stroke-width="3" d="M44,77.5 L1,77.5 C-0.380711875,77.5 -1.5,76.3807119 -1.5,75 L-1.5,56 C-1.5,44.0839507 9.28194448,34.5 22.5,34.5 C35.7180555,34.5 46.5,44.0839507 46.5,56 L46.5,75 C46.5,76.3807119 45.3807119,77.5 44,77.5 Z M23,33.5 C13.3350169,33.5 5.5,25.6649831 5.5,16 C5.5,6.33501688 13.3350169,-1.5 23,-1.5 C32.6649831,-1.5 40.5,6.33501688 40.5,16 C40.5,25.6649831 32.6649831,33.5 23,33.5 Z"></path>
                    </g>
                </g>
            </g>
        </g>
    </g>
</svg>