<?xml version="1.0" encoding="UTF-8" standalone="no"?>
<svg width="131px" height="88px" viewBox="0 0 131 88" version="1.1" xmlns="http://www.w3.org/2000/svg" xmlns:xlink="http://www.w3.org/1999/xlink">
    <!-- Generator: Sketch 44 (41411) - http://www.bohemiancoding.com/sketch -->
    <title>Retention</title>
    <desc>Created with Sketch.</desc>
    <defs>
        <rect id="path-1" x="115" y="20" width="16" height="42" rx="2"></rect>
        <rect id="path-2" x="0" y="25" width="16" height="42" rx="2"></rect>
    </defs>
    <g id="Page-1" stroke="none" stroke-width="1" fill="none" fill-rule="evenodd">
        <g id="Artboard-12" transform="translate(-242.000000, -290.000000)">
            <g id="Retention" transform="translate(242.000000, 292.000000)">
                <path d="M42.7415342,37.8568614 L63.2055376,27.3086284 L63.2055376,27.3086284 C63.5777618,27.1167643 64.0301116,27.177146 64.3389782,27.4599253 L99.9136182,60.029871 C88.5791294,73.2916799 81.2186968,80.4527247 77.8323203,81.5130054 C73.0394697,83.0136558 66.557027,84.3725273 49.558721,83.0177648 C48.2347491,82.9122445 46.9799907,82.3846465 45.9800311,81.5130054 L26.2325423,64.2995864 L22.6246891,64.2995864 C21.1751133,64.2995864 20,63.1278792 20,61.6825051 L20,29.1151141 C20,27.6697401 21.1751133,26.4980329 22.6246891,26.4980329 L29.7674219,26.4980329 L29.7674219,26.4980329 C30.0292134,26.4980329 30.2805659,26.6006935 30.467502,26.7839685 L41.5832857,37.6820604 L41.5832857,37.6820604 C41.8912709,37.984014 42.358155,38.0544754 42.7415342,37.8568614 Z M103.353411,21.5211507 L108.217878,21.5211507 C109.54106,21.5211507 110.613711,22.5906927 110.613711,23.9100396 L110.613711,57.9451384 C110.613711,59.2644853 109.54106,60.3340273 108.217878,60.3340273 L100.031624,60.3340273 L64.3365525,27.4683637 L64.3365525,27.4683637 C64.0274041,27.1837203 63.5732787,27.1227248 63.1999785,27.3157057 L42.7954645,37.8640056 L42.7954645,37.8640056 C42.4035052,38.0666325 41.9250679,37.9884185 41.6180393,37.6715224 L31.8894453,27.6302629 L31.8894453,27.6302629 C31.5051453,27.233612 31.5151578,26.6005262 31.9118087,26.2162262 C31.9315303,26.1971187 31.9520306,26.1788315 31.9732575,26.1614114 C50.1433571,11.2498089 59.981704,3.14684681 61.4882984,1.85252502 C64.3221681,-0.582064765 68.1773609,-0.582064765 72.825118,1.64668043 L103.353411,21.5211507 Z" id="Combined-Shape" stroke="#545454" stroke-width="3" fill-rule="nonzero"></path>
                <g id="Rectangle-24">
                    <rect stroke="#999999" stroke-width="8" x="119" y="24" width="8" height="34" rx="2"></rect>
                    <rect stroke="#545454" stroke-width="3" x="116.5" y="21.5" width="13" height="39" rx="2"></rect>
                </g>
                <g id="Rectangle-24-Copy">
                    <rect stroke="#999999" stroke-width="8" x="4" y="29" width="8" height="34" rx="2"></rect>
                    <rect stroke="#545454" stroke-width="3" x="1.5" y="26.5" width="13" height="39" rx="2"></rect>
                </g>
            </g>
        </g>
    </g>
</svg>