<?xml version="1.0" encoding="UTF-8" standalone="no"?>
<svg width="494px" height="494px" viewBox="0 0 494 494" version="1.1" xmlns="http://www.w3.org/2000/svg" xmlns:xlink="http://www.w3.org/1999/xlink">
    <!-- Generator: Sketch 44 (41411) - http://www.bohemiancoding.com/sketch -->
    <title>Torch and Flame</title>
    <desc>Created with Sketch.</desc>
    <defs></defs>
    <g id="Page-1" stroke="none" stroke-width="1" fill="none" fill-rule="evenodd">
        <g id="Manager-Score-Icon-Copy-3" transform="translate(-12.000000, -13.000000)" fill="#FFFFFF">
            <g id="Torch-and-Flame" transform="translate(12.000000, 13.000000)">
                <path d="M247,494 C110.585667,494 0,383.414333 0,247 C0,110.585667 110.585667,0 247,0 C383.414333,0 494,110.585667 494,247 C494,383.414333 383.414333,494 247,494 Z M247,479.094828 C375.182434,479.094828 479.094828,375.182434 479.094828,247 C479.094828,118.817566 375.182434,14.9051724 247,14.9051724 C118.817566,14.9051724 14.9051724,118.817566 14.9051724,247 C14.9051724,375.182434 118.817566,479.094828 247,479.094828 Z" id="Mask" fill-rule="nonzero"></path>
                <g id="Group-2" transform="translate(139.000000, 17.000000)">
                    <path d="M19.5565757,108.993044 C17.0671423,89.3770852 22.9372577,70.3625674 36.9947352,52.473327 C56.8144082,27.2455327 74.6709089,10.7628888 89.4474482,0 C87.5485429,4.33498507 86.1104192,8.95977753 85.3270904,13.8646767 C82.5696761,31.1524759 88.3633988,48.0098081 102.560323,63.9674035 C118.667066,82.0918851 139.183975,89.4753044 157.287843,95.9990022 C175.808839,102.66336 187.387796,107.277239 191.916795,117.772147 C197.231547,130.068953 193.358556,151.548653 180.349963,183.037014 L65.2552001,183.037014 C55.7885628,174.986674 24.1983443,145.661561 19.5565757,108.993044 Z M32.4776611,91.4126975 C35.1920905,112.855839 77.7097502,121.425813 92.5,124.427402 C127.55668,131.541937 113.86844,159.941117 113.86844,159.941117 C113.86844,159.941117 187.916111,130.178984 110.196886,102.871201 C32.4776611,75.5634178 79.545429,16.6261117 80.3106872,14.8791141 C71.6696118,21.1730732 61.8136284,34.6931857 50.2234119,49.4459819 C42.002832,59.9073135 31.0218817,79.9416095 32.4776611,91.4126975 Z" id="Combined-Shape"></path>
                    <g id="Group" transform="translate(0.000000, 167.000000)" fill-rule="nonzero">
                        <g id="games">
                            <path d="M55.127,117.805 L45.31,117.805 C40.301,117.805 39.3471292,113.869811 39.3471292,113.869811 C37.5027787,111.123934 37.630949,106.453547 39.3369029,103.629364 C39.3369029,103.629364 40.301,99.681 45.31,99.681 L48.761,99.681 C19.408,80.189 0,46.865 0,9.062 C0,4.053 4.053,0 9.062,0 L208.424,0 C213.433,0 217.486,4.053 217.486,9.062 C217.486,46.864 198.078,80.189 168.726,99.681 L172.177,99.681 C177.186,99.681 178.139871,103.616189 178.139871,103.616189 C179.984221,106.362066 179.856051,111.032453 178.150097,113.856636 C178.150097,113.856636 177.186,117.805 172.177,117.805 L162.36,117.805 L55.127,117.805 Z M89.867,308.106 L73.318,117.805 L144.168,117.805 L127.619,308.106 L89.867,308.106 Z M108.743,99.681 C155.654,99.681 194.354,63.849 198.911,18.123 L18.575,18.123 C23.132,63.849 61.832,99.681 108.743,99.681 Z" id="Combined-Shape"></path>
                        </g>
                    </g>
                </g>
            </g>
        </g>
    </g>
</svg>