<?xml version="1.0" encoding="UTF-8" standalone="no"?>
<svg width="416px" height="416px" viewBox="0 0 416 416" version="1.1" xmlns="http://www.w3.org/2000/svg" xmlns:xlink="http://www.w3.org/1999/xlink">
    <!-- Generator: Sketch 44 (41411) - http://www.bohemiancoding.com/sketch -->
    <title>Shape</title>
    <desc>Created with Sketch.</desc>
    <defs></defs>
    <g id="Page-1" stroke="none" stroke-width="1" fill="none" fill-rule="evenodd">
        <g id="Artboard-25" fill="#000000">
            <path d="M208,0 C93.1,0 0,93.1 0,208 C0,322.9 93.1,416 208,416 C322.9,416 416,322.9 416,208 C416,93.1 322.9,0 208,0 L208,0 Z M208,398.7 C102.9,398.7 17.3,313.2 17.3,208 C17.3,102.9 102.8,17.3 208,17.3 C313.1,17.3 398.7,102.8 398.7,208 C398.7,313.1 313.1,398.7 208,398.7 L208,398.7 Z M57,108 L57,309 L359,309 L359,108 L57,108 L57,108 Z M208,217.843359 L79.9645833,120.5625 L336.035417,120.5625 L208,217.843359 L208,217.843359 Z M69.5833333,296.4375 L69.5833333,128.492578 L160.104688,197.272266 L106.546875,257.964844 L108.119792,259.535156 L170.171354,204.888281 L208,233.625 L245.828646,204.888281 L307.880208,259.535156 L309.453125,257.964844 L255.895313,197.19375 L346.416667,128.492578 L346.416667,296.4375 L69.5833333,296.4375 L69.5833333,296.4375 Z" id="Shape"></path>
        </g>
    </g>
</svg>