<?xml version="1.0" encoding="UTF-8" standalone="no"?>
<svg width="152px" height="73px" viewBox="0 0 152 73" version="1.1" xmlns="http://www.w3.org/2000/svg" xmlns:xlink="http://www.w3.org/1999/xlink">
    <!-- Generator: Sketch 44 (41411) - http://www.bohemiancoding.com/sketch -->
    <title>Feedback Copy</title>
    <desc>Created with Sketch.</desc>
    <defs></defs>
    <g id="Page-1" stroke="none" stroke-width="1" fill="none" fill-rule="evenodd">
        <g id="Artboard-13" transform="translate(-357.000000, -48.000000)" stroke="#545454" stroke-width="3" fill="#FFFFFF">
            <path d="M415.597455,74.8661086 L421.454471,80.775127 L429.453146,72.598828 L416.971254,60.0523869 C410.582847,53.5726807 402.054969,50 392.965652,50 C383.876335,50 375.347818,53.5726807 368.95175,60.0600038 C362.52951,66.5645479 358.99458,75.2243576 359.000006,84.4435163 C359.005113,93.687513 362.555044,102.348979 368.995797,108.831003 C375.385482,115.31104 383.91336,118.883721 393.002358,118.883721 C402.051458,118.883721 410.57774,115.313027 417.010514,108.829347 L457.077942,68.2644524 C461.370927,63.9304079 467.072457,61.5419973 473.130193,61.5419973 C479.18729,61.5419973 484.888501,63.9304079 489.184039,68.2671017 C493.433934,72.5650485 495.777999,78.2963066 495.784064,84.4041069 C495.790447,90.5314463 493.444467,96.2911852 489.178932,100.621918 C484.888821,104.953313 479.18761,107.341724 473.130512,107.341724 C467.072776,107.341724 461.371246,104.953313 457.075708,100.616619 L444.682229,88.1595944 L436.674616,96.2739642 L449.12076,108.828354 C455.513636,115.31104 464.041833,118.883721 473.130512,118.883721 C482.21951,118.883721 490.747707,115.31104 497.144094,108.823717 C503.571442,102.313874 507.107648,93.6534023 507.099988,84.4395423 C507.092646,75.2127665 503.556121,66.5539504 497.142498,60.0586791 C490.747707,53.5726807 482.219829,50 473.130512,50 C464.081412,50 455.55513,53.5706936 449.122037,60.0540427 L415.615652,93.9764406 C411.948611,102.295024 403.630082,108.101921 393.95528,108.101921 C388.823887,108.101921 383.937962,106.4633 379.898853,103.475643 C379.780745,103.388281 379.079937,103.128602 377.796429,102.696607 L369.714038,101.3515 C372.157602,97.8855146 373.266607,95.9399391 373.041055,95.514774 C371.246746,92.1325174 370.295219,88.3548382 370.295219,84.4418605 C370.295219,71.3747698 380.888189,60.7817998 393.95528,60.7817998 C403.614112,60.7817998 411.921145,66.5695428 415.597452,74.8661019 Z" id="Feedback-Copy"></path>
        </g>
    </g>
</svg>