<?xml version="1.0" encoding="UTF-8" standalone="no"?>
<svg width="152px" height="72px" viewBox="0 0 152 72" version="1.1" xmlns="http://www.w3.org/2000/svg" xmlns:xlink="http://www.w3.org/1999/xlink">
    <!-- Generator: Sketch 44 (41411) - http://www.bohemiancoding.com/sketch -->
    <title>Feedback Copy</title>
    <desc>Created with Sketch.</desc>
    <defs></defs>
    <g id="Page-1" stroke="none" stroke-width="1" fill="none" fill-rule="evenodd">
        <g id="Artboard-19" transform="translate(-80.000000, -116.000000)" fill-rule="nonzero" fill="#545454">
            <path d="M100.661118,168.736669 C102.393505,169.319745 102.972724,169.53437 103.29087,169.769697 C107.09992,172.587184 111.679832,174.101921 116.45528,174.101921 C125.322693,174.101921 133.227655,168.846069 136.743097,160.871384 L136.854459,160.618762 L137.048468,160.422344 L170.557258,126.497517 C177.271335,119.730989 186.180632,116 195.630512,116 C205.121294,116 214.03393,119.733616 220.709846,126.504749 C227.401313,133.281401 231.092333,142.318752 231.099987,151.938295 C231.107975,161.546142 227.416999,170.586024 220.712214,177.376865 C214.034145,184.149874 205.1213,187.883721 195.630512,187.883721 C186.141056,187.883721 177.227961,184.1506 170.555517,177.384411 L157.064818,163.776382 L167.177898,153.528475 L168.245598,154.60165 L180.641413,167.061028 C184.655933,171.114012 189.974061,173.341724 195.630512,173.341724 C201.285433,173.341724 206.603488,171.114652 210.610258,167.069333 C214.598512,163.020119 216.790038,157.639294 216.784065,151.905596 C216.778391,146.19102 214.589199,140.838456 210.618334,136.822693 C206.603811,132.769707 201.286001,130.541997 195.630193,130.541997 C189.974201,130.541997 184.655935,132.769381 180.645126,136.818549 L140.575346,177.385819 C133.861682,184.152612 124.952402,187.883721 115.502358,187.883721 C106.013116,187.883721 97.1001543,184.150979 90.4317553,177.38827 C83.7111653,170.624616 80.0053314,161.583096 80.0000065,151.944399 C79.9943489,142.331845 83.6837147,133.292633 90.3836043,126.506883 C97.0613102,119.733904 105.974466,116 115.465652,116 C124.955254,116 133.868249,119.732775 140.534646,126.494466 L154.060211,140.089976 L143.961484,150.412961 L136.837854,143.226083 L136.726057,142.973784 C133.201477,135.019634 125.307524,129.7818 116.45528,129.7818 C104.216616,129.7818 94.2952188,139.703197 94.2952188,151.94186 C94.2952188,155.587594 95.1762971,159.126476 96.8661364,162.31181 C97.4352941,163.384668 96.8813665,164.687271 94.7971155,167.760756 L100.661118,168.736669 Z M143.947457,146.137293 L149.846083,140.107679 L138.403096,128.605495 C132.29544,122.410554 124.151834,119 115.465652,119 C106.77799,119 98.6341768,122.41161 92.5191421,128.61389 C86.3745934,134.837183 82.994812,143.117891 83.000006,151.942688 C83.004895,160.792249 86.3991448,169.073564 92.5638777,175.277815 C98.6728446,181.473166 106.816496,184.883721 115.502358,184.883721 C124.150562,184.883721 132.293832,181.473409 138.44333,175.275251 L178.512246,134.708852 C183.086781,130.090564 189.171929,127.541997 195.630193,127.541997 C202.088367,127.541997 208.173041,130.090957 212.750645,134.712421 C217.278649,139.291621 219.777608,145.401565 219.784063,151.902544 C219.790856,158.423283 217.290642,164.562028 212.744659,169.177487 C208.17266,173.793482 202.08768,176.341724 195.630512,176.341724 C189.171718,176.341724 183.08672,173.792778 178.512339,169.174564 L167.18656,157.790713 L161.284414,163.771547 L172.688793,175.275117 C178.800603,181.47279 186.944447,184.883721 195.630512,184.883721 C204.317781,184.883721 212.461312,181.472162 218.576692,175.269842 C224.726128,169.041477 228.107321,160.760313 228.099988,151.940736 C228.09296,143.107039 224.711109,134.826681 218.574354,128.611802 C212.461072,122.411328 204.317779,119 195.630512,119 C186.982434,119 178.839097,122.410224 172.68922,128.608139 L139.373781,162.337221 C135.327747,171.246723 126.427154,177.101921 116.45528,177.101921 C111.078177,177.101921 105.911529,175.406808 101.606777,172.255136 C101.528794,172.222377 101.413095,172.177344 101.263483,172.121907 C100.950094,172.005783 100.504999,171.850216 99.9313597,171.656481 L89.6119716,169.939084 L90.9880838,167.987187 C92.1845689,166.290076 93.0491251,164.973114 93.575307,164.050011 C93.7573285,163.730683 93.8937428,163.467006 93.9829294,163.267549 C92.2155068,159.767236 91.2952188,155.907156 91.2952188,151.94186 C91.2952188,138.046343 102.559762,126.7818 116.45528,126.7818 C126.409959,126.7818 135.298054,132.616799 139.353988,141.50304 L143.947457,146.137293 Z" id="Feedback-Copy"></path>
        </g>
    </g>
</svg>