<?xml version="1.0" encoding="UTF-8" standalone="no"?>
<svg width="93px" height="83px" viewBox="0 0 93 83" version="1.1" xmlns="http://www.w3.org/2000/svg" xmlns:xlink="http://www.w3.org/1999/xlink">
    <!-- Generator: Sketch 44 (41411) - http://www.bohemiancoding.com/sketch -->
    <title>Combined Shape</title>
    <desc>Created with Sketch.</desc>
    <defs></defs>
    <g id="Page-1" stroke="none" stroke-width="1" fill="none" fill-rule="evenodd">
        <g id="Artboard-13" transform="translate(-49.000000, -29.000000)" stroke="#545454" stroke-width="3" fill-rule="nonzero">
            <path d="M140.435997,48.5039057 C120.405643,50.652351 107.87834,56.1992303 102.706759,63.8427731 C98.4918295,70.0723964 99.671928,77.4826667 105.050303,83.1129722 C105.24963,83.3216361 105.453846,83.5264659 105.662717,83.7272305 L106.542507,84.572879 L105.893572,85.6063369 C103.505527,89.4094008 101.669277,93.3503587 100.392971,97.4826588 L98.7467616,102.812596 L97.4978507,97.3758269 C95.4456123,88.4420064 92.4903269,80.5651909 88.6357637,73.7418348 C87.4804445,71.6967103 86.2554585,69.7911542 84.9675498,68.043374 L84.2048533,67.0083425 L85.1110424,66.0963023 C85.6067595,65.5973845 86.0731169,65.0758098 86.5069374,64.5349559 C91.0829867,58.8298897 91.5831568,51.8599608 87.1213556,45.9008148 C81.6852741,38.6404279 69.5313156,33.2114385 50.5159408,30.6969933 C50.2041849,50.1217429 54.4242882,62.7357595 61.7857952,68.5486283 C67.8403088,73.3294556 75.8627514,72.9994582 82.3759844,68.4049916 L83.5832424,67.5533859 L84.4530782,68.7475759 C85.6661794,70.413032 86.8222871,72.2223683 87.916362,74.1590797 C92.185704,81.716586 95.6624019,92.8559671 98.3777087,107.60143 L98.4133114,107.79477 L98.3978888,107.990756 C98.3443838,108.670681 98.3041402,109.355922 98.2774437,110.041079 C98.2693233,110.271424 98.4486684,110.464105 98.6771187,110.472176 C98.9055541,110.480246 99.0978913,110.300843 99.1062124,110.06511 C99.4414151,101.461113 101.901178,93.6799737 106.357717,86.4478833 L107.175736,85.1203994 L108.470531,85.9892338 C114.948404,90.3360208 122.723321,90.5010259 128.691403,85.7163073 C135.930511,79.9125841 140.274011,67.520909 140.435997,48.5039057 Z" id="Combined-Shape"></path>
        </g>
    </g>
</svg>