<?xml version="1.0" encoding="UTF-8" standalone="no"?>
<svg width="150px" height="150px" viewBox="0 0 150 150" version="1.1" xmlns="http://www.w3.org/2000/svg" xmlns:xlink="http://www.w3.org/1999/xlink">
    <!-- Generator: Sketch 44 (41411) - http://www.bohemiancoding.com/sketch -->
    <title>Artboard 4</title>
    <desc>Created with Sketch.</desc>
    <defs></defs>
    <g id="Page-1" stroke="none" stroke-width="1" fill="none" fill-rule="evenodd">
        <g id="Artboard-4" fill-rule="nonzero" fill="#545454">
            <path d="M72.4260355,143.431949 L72.4260355,137.04142 L72.4260355,129.940828 L75.0887574,129.940828 L77.7514793,129.940828 L77.7514793,137.04142 L77.7514793,143.404999 C84.9438464,143.094415 91.8496563,141.678543 98.3033199,139.322971 C96.6791513,123.0357 92.6199255,82.401242 92.4497041,81.408284 L92.2721893,80.2366864 L75.0887574,80.2366864 L57.9053254,80.2366864 L57.7278107,81.408284 C57.5559784,82.410639 53.5421831,123.411487 51.9965286,139.619802 C58.4236988,141.872037 65.2870935,143.196312 72.4260355,143.431949 Z M48.7910662,138.405289 C50.5236036,121.52634 55.0295858,77.5917433 55.0295858,77.2189349 C55.0295858,77.112426 64.0473373,77.0414201 75.0887574,77.0414201 C86.1301775,77.0414201 95.147929,77.112426 95.147929,77.2189349 C95.147929,77.593456 99.5718854,121.042597 101.3349,138.133742 C126.087317,127.736072 143.470001,103.265508 143.470001,74.7350006 C143.470001,36.773708 112.696293,6 74.7350006,6 C36.773708,6 6,36.773708 6,74.7350006 C6,103.516881 23.6903392,128.16696 48.7910662,138.405289 Z M75,150 C33.5786438,150 0,116.421356 0,75 C0,33.5786438 33.5786438,0 75,0 C116.421356,0 150,33.5786438 150,75 C150,116.421356 116.421356,150 75,150 Z M72.4260355,99.7633136 L72.4260355,92.6627219 L75.0887574,92.6627219 L77.7514793,92.6627219 L77.7514793,99.7633136 L77.7514793,106.863905 L75.0887574,106.863905 L72.4260355,106.863905 L72.4260355,99.7633136 Z M53.6094675,74.556213 L53.6094675,73.4911243 L75.0887574,73.4911243 L96.5680473,73.4911243 L96.5680473,74.556213 L96.5680473,75.6213018 L75.0887574,75.6213018 L53.6094675,75.6213018 L53.6094675,74.556213 Z M53.6094675,72.1420118 C53.6094675,71.964497 54.1420118,70.5088757 54.816568,68.8402367 L56.0236686,65.8579882 L75.3727811,65.7514793 L94.7218935,65.6804734 L95.4319527,68.0591716 C95.8579882,69.408284 96.2840237,70.8994083 96.3905325,71.4674556 L96.6390533,72.4260355 L75.1242604,72.4260355 C63.3017751,72.4260355 53.6094675,72.2840237 53.6094675,72.1420118 Z M58.5798817,53.6094675 L58.5798817,43.3136095 L56.0946746,43.3136095 L53.6094675,43.3136095 L53.6094675,42.2485207 C53.6094675,41.183432 53.6094675,41.183432 55.6686391,41.183432 L57.7278107,41.183432 L58.1538462,39.0887574 C59.5384615,32.3786982 65.0414201,26.8757396 71.7159763,25.4911243 L73.9526627,25.0295858 L73.704142,16.7928994 L73.4556213,8.52071006 L78.9585799,8.52071006 L84.4970414,8.52071006 L84.4970414,9.69230769 C84.4970414,10.8284024 84.5325444,10.8639053 88.6153846,12.3905325 C91.4201183,13.4556213 92.556213,14.0591716 92.2011834,14.2366864 C91.9171598,14.4142012 90.0710059,15.1597633 88.0828402,15.9408284 L84.4970414,17.3254438 L84.4970414,16.4733728 L84.4970414,15.6213018 L80.4142012,15.6213018 L76.3313609,15.6213018 L76.3313609,20.3431953 L76.3313609,25.0650888 L78.5325444,25.5266272 C85.1360947,26.8757396 90.6390533,32.4142012 92.0236686,39.0887574 L92.4497041,41.183432 L94.5088757,41.183432 C96.5680473,41.183432 96.5680473,41.183432 96.5680473,42.2485207 L96.5680473,43.3136095 L94.0828402,43.3136095 L91.5976331,43.3136095 L91.5976331,53.6094675 L91.5976331,63.9053254 L75.0887574,63.9053254 L58.5798817,63.9053254 L58.5798817,53.6094675 L58.5798817,53.6094675 L58.5798817,53.6094675 Z M73.1360947,53.2544379 L73.1360947,45.443787 L67.4556213,45.443787 L61.7751479,45.443787 L61.7751479,53.2544379 L61.7751479,61.0650888 L67.4556213,61.0650888 L73.1360947,61.0650888 L73.1360947,53.2544379 L73.1360947,53.2544379 L73.1360947,53.2544379 Z M88.4023669,53.2544379 L88.4023669,45.443787 L82.7218935,45.443787 L77.0414201,45.443787 L77.0414201,53.2544379 L77.0414201,61.0650888 L82.7218935,61.0650888 L88.4023669,61.0650888 L88.4023669,53.2544379 L88.4023669,53.2544379 L88.4023669,53.2544379 Z" id="Shape"></path>
        </g>
    </g>
</svg>