<?xml version="1.0" encoding="UTF-8" standalone="no"?>
<svg width="135px" height="88px" viewBox="0 0 135 88" version="1.1" xmlns="http://www.w3.org/2000/svg" xmlns:xlink="http://www.w3.org/1999/xlink">
    <!-- Generator: Sketch 44 (41411) - http://www.bohemiancoding.com/sketch -->
    <title>Combined Shape</title>
    <desc>Created with Sketch.</desc>
    <defs></defs>
    <g id="Page-1" stroke="none" stroke-width="1" fill="none" fill-rule="evenodd">
        <g id="Artboard-13" transform="translate(-197.000000, -40.000000)" fill-rule="nonzero" fill="#545454">
            <path d="M242.428787,81.1901596 C241.470339,81.6841945 240.303129,81.5080409 239.533166,80.7531569 L228.563205,69.9980329 L221.624689,69.9980329 C221.002567,69.9980329 220.5,70.4991435 220.5,71.1151141 L220.5,103.682505 C220.5,104.298476 221.002567,104.799586 221.624689,104.799586 L225.794532,104.799586 L245.965658,122.38228 C246.723236,123.042643 247.67423,123.442515 248.677893,123.522506 C262.952969,124.660228 270.00349,124.079319 276.384123,122.081531 C279.284473,121.173426 286.266397,114.435436 296.829795,102.15576 L262.583071,70.8015723 L242.428787,81.1901596 Z M261.518285,67.9753303 C262.448846,67.49567 263.57972,67.6466243 264.351887,68.3535724 L300.995745,101.902429 L300.053894,103.004432 C288.476663,116.550261 281.067419,123.758794 277.280518,124.94448 C270.50053,127.067307 263.07282,127.679293 248.439549,126.513023 C246.795268,126.381974 245.236746,125.72665 243.994404,124.643731 L224.670553,107.799586 L221.624689,107.799586 C219.347659,107.799586 217.5,105.957283 217.5,103.682505 L217.5,71.1151141 C217.5,68.8403367 219.347659,66.9980329 221.624689,66.9980329 L228.767422,66.9980329 C229.421901,66.9980329 230.050282,67.2546844 230.517622,67.712872 L241.375421,78.3580312 L261.518285,67.9753303 Z M307.217878,100.834027 C307.713606,100.834027 308.113711,100.435082 308.113711,99.9451384 L308.113711,65.9100396 C308.113711,65.4200961 307.713606,65.0211507 307.217878,65.0211507 L301.908167,65.0211507 L271.089837,44.9578611 C266.919815,42.9797869 263.740495,43.0360818 261.465771,44.9903064 C259.957101,46.2864117 250.271042,54.264361 232.344569,68.9764702 L241.436749,78.3608661 L261.511141,67.9832258 C262.444391,67.5007735 263.579705,67.6532622 264.352576,68.3648709 L299.617004,100.834027 L307.217878,100.834027 Z M307.217878,62.0211507 C309.368514,62.0211507 311.113711,63.7612893 311.113711,65.9100396 L311.113711,99.9451384 C311.113711,102.093889 309.368514,103.834027 307.217878,103.834027 L298.446243,103.834027 L262.577963,70.8088843 L242.484302,81.1964855 C241.504404,81.7030528 240.308311,81.5075177 239.540739,80.7152774 L229.812145,70.674018 C228.851395,69.6823906 228.876426,68.0996761 229.868054,67.1389261 C248.166821,52.110766 258.01804,43.9972023 259.510825,42.7147436 C262.826326,39.866383 267.28493,39.805971 272.473699,42.2941487 L302.798655,62.0211507 L307.217878,62.0211507 Z M317,63.5 C316.723858,63.5 316.5,63.7238576 316.5,64 L316.5,100 C316.5,100.276142 316.723858,100.5 317,100.5 L328,100.5 C328.276142,100.5 328.5,100.276142 328.5,100 L328.5,64 C328.5,63.7238576 328.276142,63.5 328,63.5 L317,63.5 Z M317,60.5 L328,60.5 C329.932997,60.5 331.5,62.0670034 331.5,64 L331.5,100 C331.5,101.932997 329.932997,103.5 328,103.5 L317,103.5 C315.067003,103.5 313.5,101.932997 313.5,100 L313.5,64 C313.5,62.0670034 315.067003,60.5 317,60.5 Z M201,68.5 C200.723858,68.5 200.5,68.7238576 200.5,69 L200.5,105 C200.5,105.276142 200.723858,105.5 201,105.5 L212,105.5 C212.276142,105.5 212.5,105.276142 212.5,105 L212.5,69 C212.5,68.7238576 212.276142,68.5 212,68.5 L201,68.5 Z M201,65.5 L212,65.5 C213.932997,65.5 215.5,67.0670034 215.5,69 L215.5,105 C215.5,106.932997 213.932997,108.5 212,108.5 L201,108.5 C199.067003,108.5 197.5,106.932997 197.5,105 L197.5,69 C197.5,67.0670034 199.067003,65.5 201,65.5 Z" id="Combined-Shape"></path>
        </g>
    </g>
</svg>