<?xml version="1.0" encoding="UTF-8" standalone="no"?>
<svg width="75px" height="75px" viewBox="0 0 75 75" version="1.1" xmlns="http://www.w3.org/2000/svg" xmlns:xlink="http://www.w3.org/1999/xlink">
    <!-- Generator: Sketch 44 (41411) - http://www.bohemiancoding.com/sketch -->
    <title>Combined Shape</title>
    <desc>Created with Sketch.</desc>
    <defs></defs>
    <g id="Page-1" stroke="none" stroke-width="1" fill="none" fill-rule="evenodd">
        <g id="Artboard-14" transform="translate(-56.000000, -26.000000)" fill="#545454">
            <path d="M77,69.7488753 C77,69.3403892 77,68.931903 77,68.5234169 C75.8864381,68.8339752 74.7126076,69 73.5,69 C66.3202983,69 60.5,63.1797017 60.5,56 C60.5,48.8202983 66.3202983,43 73.5,43 C79.4393865,43 84.4484821,46.9830486 86.0019023,52.4237613 C87.9782191,51.5098984 90.1795629,51 92.5,51 C95.1718631,51 97.6858285,51.6760401 99.8801745,52.8663986 C101.282427,47.2004445 106.40068,43 112.5,43 C119.679702,43 125.5,48.8202983 125.5,56 C125.5,63.1797017 119.679702,69 112.5,69 C110.918104,69 109.402199,68.7174544 108,68.2000763 C108,68.8678953 108,69.5357143 108,70.2035333 C109.58745,69.7454551 111.26506,69.5 113,69.5 C122.941125,69.5 131,77.5588745 131,87.5 C131,90.3018447 131,94.7799129 131,100.934205 C122.825572,100.934205 116.825572,100.934205 113,100.934205 C109.516086,100.934205 103.516086,100.934205 95,100.934205 C95,95.1215717 95,90.6435034 95,87.5 C95,85.5817949 95.3000498,83.7336702 95.8557753,82 C94.7371836,82 93.6185918,82 92.5,82 C92.0480749,82 91.5961498,82 91.1442247,82 C91.6999502,83.7336702 92,85.5817949 92,87.5 C92,90.3018447 92,94.7799129 92,100.934205 C83.8255723,100.934205 77.8255723,100.934205 74,100.934205 C70.5160864,100.934205 64.5160864,100.934205 56,100.934205 C56,95.1215717 56,90.6435034 56,87.5 C56,77.5588745 64.0588745,69.5 74,69.5 C75.0221366,69.5 76.0243746,69.5851964 77,69.7488753 Z M93,50 C86.372583,50 81,44.627417 81,38 C81,31.372583 86.372583,26 93,26 C99.627417,26 105,31.372583 105,38 C105,44.627417 99.627417,50 93,50 Z M112.5,68 C119.127417,68 124.5,62.627417 124.5,56 C124.5,49.372583 119.127417,44 112.5,44 C105.872583,44 100.5,49.372583 100.5,56 C100.5,62.627417 105.872583,68 112.5,68 Z M113,99.9201789 C116.578756,99.9201789 122.191652,99.9201789 129.838688,99.9201789 C129.838688,94.1629457 129.838688,89.9737906 129.838688,87.3527135 C129.838688,78.0529631 122.29975,70.5140258 113,70.5140258 C103.70025,70.5140258 96.1613123,78.0529631 96.1613123,87.3527135 C96.1613123,90.2934064 96.1613123,94.4825615 96.1613123,99.9201789 C104.127963,99.9201789 109.740859,99.9201789 113,99.9201789 Z M73.5,68 C80.127417,68 85.5,62.627417 85.5,56 C85.5,49.372583 80.127417,44 73.5,44 C66.872583,44 61.5,49.372583 61.5,56 C61.5,62.627417 66.872583,68 73.5,68 Z M74,99.9201789 C77.5787565,99.9201789 83.1916524,99.9201789 90.8386877,99.9201789 C90.8386877,94.1629457 90.8386877,89.9737906 90.8386877,87.3527135 C90.8386877,78.0529631 83.2997504,70.5140258 74,70.5140258 C64.7002496,70.5140258 57.1613123,78.0529631 57.1613123,87.3527135 C57.1613123,90.2934064 57.1613123,94.4825615 57.1613123,99.9201789 C65.1279634,99.9201789 70.7408593,99.9201789 74,99.9201789 Z" id="Combined-Shape"></path>
        </g>
    </g>
</svg>