<?xml version="1.0" encoding="UTF-8" standalone="no"?>
<svg width="150px" height="150px" viewBox="0 0 150 150" version="1.1" xmlns="http://www.w3.org/2000/svg" xmlns:xlink="http://www.w3.org/1999/xlink">
    <!-- Generator: Sketch 44 (41411) - http://www.bohemiancoding.com/sketch -->
    <title>Artboard 2</title>
    <desc>Created with Sketch.</desc>
    <defs></defs>
    <g id="Page-1" stroke="none" stroke-width="1" fill="none" fill-rule="evenodd">
        <g id="Artboard-2" fill-rule="nonzero" fill="#545454">
            <path d="M61.772732,7.53411039 C30.1391675,13.6997162 6.26293103,41.5614773 6.26293103,75 C6.26293103,110.923985 33.8204883,140.411364 68.9485895,143.474522 L64.4690283,92.2952884 L85.9821862,92.2952884 L81.5062633,143.432955 C116.415126,140.154141 143.732932,110.767374 143.732932,75 C143.732932,37.0375651 112.959224,6.26293103 74.9979316,6.26293103 C72.6184662,6.26293103 70.2672405,6.38384312 67.950063,6.61985851 C67.6244932,11.6499872 69.4350979,16.554379 73.3482763,21.2199754 C78.2389878,27.0575742 84.4688183,29.4356526 89.9659441,31.5368289 C95.5897284,33.6833093 99.1056061,35.1693643 100.480808,38.5496023 C101.800926,41.7894634 101.254217,47.0084758 98.8493488,54.3522267 L105.493117,54.3522267 C107.014069,54.3522267 108.244737,55.6576317 108.244737,57.2709485 C108.244737,69.4463538 102.351619,80.1797907 93.4390688,86.4578447 L94.4869433,86.4578447 C96.0078947,86.4578447 96.2975316,87.7253048 96.2975316,87.7253048 C96.8575571,88.6097068 96.818639,90.1139619 96.3006368,91.0235851 C96.3006368,91.0235851 96.0078947,92.2952884 94.4869433,92.2952884 L91.5060729,92.2952884 L58.9454453,92.2952884 L55.9645749,92.2952884 C54.4436235,92.2952884 54.1539866,91.0278283 54.1539866,91.0278283 C53.5939611,90.1434264 53.6328792,88.6391712 54.1508815,87.729548 C54.1508815,87.729548 54.4436235,86.4578447 55.9645749,86.4578447 L57.0124494,86.4578447 C48.0995951,80.1797907 42.2064777,69.4466759 42.2064777,57.2709485 C42.2064777,55.6576317 43.4371457,54.3522267 44.9580972,54.3522267 L57.0305466,54.3522267 C53.3241072,49.9070497 49.0492597,43.3016099 48.1447092,35.7219971 C47.3888084,29.4040178 49.1712321,23.279753 53.4396969,17.5179215 C56.3719676,13.5588697 59.162721,10.2685042 61.772732,7.53411039 Z M75,150 C33.5786438,150 0,116.421356 0,75 C0,33.5786438 33.5786438,0 75,0 C116.421356,0 150,33.5786438 150,75 C150,116.421356 116.421356,150 75,150 Z M75.2256073,86.4578447 C89.4698381,86.4578447 101.22085,74.9169442 102.604555,60.1893483 L47.8466599,60.1893483 C49.2303644,74.9169442 60.9813765,86.4578447 75.2256073,86.4578447 Z M52.0681157,31.0596552 C52.8923352,37.96614 65.8025557,40.7263883 70.2935223,41.6931511 C80.938263,43.9846263 76.7819149,53.1315373 76.7819149,53.1315373 C76.7819149,53.1315373 99.2660256,43.5456413 75.6670707,34.7502515 C52.0681157,25.9548617 66.3599481,6.97212044 66.5923139,6.40944108 C63.9685056,8.43662226 60.9757981,12.7912292 57.4565016,17.5428633 C54.9603741,20.9122869 51.6260774,27.3650056 52.0681157,31.0596552 Z" id="Combined-Shape"></path>
        </g>
    </g>
</svg>